<?xml version="1.0" standalone="no"?>
<!DOCTYPE svg PUBLIC "-//W3C//DTD SVG 20010904//EN"
 "http://www.w3.org/TR/2001/REC-SVG-20010904/DTD/svg10.dtd">
<svg version="1.0" xmlns="http://www.w3.org/2000/svg"
 width="512.000000pt" height="512.000000pt" viewBox="0 0 512.000000 512.000000"
 preserveAspectRatio="xMidYMid meet">
<metadata>
Created by potrace 1.14, written by Peter Selinger 2001-2017
</metadata>
<g transform="translate(0.000000,512.000000) scale(0.100000,-0.100000)"
fill="#000000" stroke="none">
<path d="M2334 5105 c-333 -60 -615 -268 -762 -561 -48 -95 -89 -221 -103
-318 -11 -75 -16 -1864 -5 -1944 56 -414 333 -748 727 -876 119 -38 208 -49
389 -49 141 1 265 18 361 52 394 137 664 470 714 881 13 101 8 1837 -5 1929
-60 436 -395 791 -831 880 -106 22 -379 25 -485 6z m427 -321 c237 -54 417
-199 516 -415 33 -70 54 -152 56 -215 l2 -57 -130 -2 c-168 -2 -159 -1 -195
-31 -108 -91 -69 -253 67 -281 21 -5 90 -8 153 -7 l115 1 -1 -184 c0 -101 -3
-185 -6 -188 -3 -3 -68 -6 -146 -8 -124 -2 -144 -4 -168 -23 -105 -78 -100
-219 10 -276 33 -17 58 -19 172 -19 119 0 134 -2 135 -17 1 -21 0 -344 0 -354
-1 -5 -60 -8 -133 -8 -111 0 -138 -3 -173 -20 -105 -51 -115 -203 -18 -270 34
-23 46 -25 181 -28 l144 -4 -6 -61 c-26 -232 -186 -457 -399 -560 -80 -39
-119 -53 -212 -73 -27 -6 -283 -7 -320 -1 -309 51 -546 274 -611 577 -7 36
-14 77 -14 92 l0 27 143 3 c134 3 146 5 180 28 97 67 87 219 -18 270 -35 17
-62 20 -173 20 -130 0 -132 0 -133 23 -1 33 -1 330 0 344 1 8 41 11 136 11
119 0 139 3 172 22 97 55 114 171 37 251 -38 39 -65 46 -185 47 -57 1 -117 1
-134 1 l-30 1 2 163 c1 89 2 174 2 188 l1 26 123 -1 c67 -1 136 2 152 7 106
33 151 160 88 245 -42 57 -75 67 -223 68 l-135 0 2 63 c5 119 80 287 176 397
94 106 234 190 373 223 101 24 331 27 425 5z"/>
<path d="M447 4487 c-35 -21 -48 -34 -123 -122 -144 -169 -242 -373 -294 -610
-25 -113 -34 -341 -19 -460 39 -289 170 -568 363 -773 61 -65 92 -82 146 -82
90 0 160 70 160 160 0 52 -9 68 -87 157 -118 136 -193 278 -239 453 -24 92
-28 124 -28 260 -1 236 43 388 169 590 31 50 113 151 132 163 22 14 53 85 53
122 0 76 -45 136 -115 153 -55 13 -82 11 -118 -11z"/>
<path d="M4550 4498 c-66 -18 -110 -78 -110 -147 0 -54 16 -87 73 -146 87 -91
175 -237 221 -364 48 -132 63 -227 61 -383 -2 -177 -31 -302 -105 -454 -47
-98 -152 -250 -189 -276 -51 -36 -76 -128 -52 -191 12 -32 56 -76 88 -88 36
-13 100 -11 131 5 15 8 50 38 77 68 182 196 298 424 351 690 22 114 27 358 8
473 -42 257 -148 491 -308 680 -111 132 -159 158 -246 133z"/>
<path d="M841 4093 c-47 -24 -145 -151 -197 -256 -83 -170 -106 -387 -60 -572
14 -54 24 -80 54 -145 60 -129 181 -277 229 -282 10 0 32 -2 48 -4 44 -3 111
32 135 71 43 70 30 143 -40 223 -51 57 -107 170 -120 242 -31 161 8 306 117
443 59 74 72 104 67 156 -13 111 -131 174 -233 124z"/>
<path d="M4125 4091 c-16 -10 -37 -27 -47 -37 -34 -39 -43 -128 -17 -175 5 -9
29 -41 54 -70 168 -197 165 -488 -7 -684 -70 -80 -82 -148 -37 -222 20 -32 89
-73 123 -73 53 0 99 26 153 84 74 82 134 186 173 304 29 86 33 112 36 227 3
149 -10 229 -59 345 -52 126 -160 275 -220 303 -46 22 -115 21 -152 -2z"/>
<path d="M1069 2242 c-59 -15 -103 -59 -118 -116 -16 -65 31 -218 126 -411 25
-49 50 -97 57 -105 7 -8 15 -22 19 -31 3 -8 39 -60 80 -115 87 -115 221 -251
326 -329 191 -144 442 -260 649 -301 12 -2 34 -6 50 -9 15 -3 47 -8 72 -11 25
-3 51 -7 58 -9 9 -3 12 -61 12 -245 l0 -240 -375 0 c-317 0 -380 -2 -412 -16
-100 -41 -126 -170 -51 -251 50 -55 15 -53 1000 -53 891 0 913 0 953 20 52 25
85 80 85 142 0 50 -26 97 -73 132 -28 20 -41 21 -418 24 l-389 3 0 243 c0 187
3 243 13 243 67 1 261 44 381 85 57 19 237 103 281 131 80 50 148 97 195 135
254 203 445 475 546 778 45 135 48 166 16 225 -40 76 -120 104 -202 70 -56
-23 -74 -52 -109 -171 -32 -107 -119 -281 -192 -383 -117 -164 -310 -328 -497
-421 -216 -108 -507 -160 -732 -131 -25 3 -60 8 -79 10 -19 3 -69 14 -112 25
-453 117 -805 451 -949 899 -18 56 -44 116 -58 132 -38 46 -98 66 -153 51z"/>
</g>
</svg>
